<svg xmlns="http://www.w3.org/2000/svg" viewBox="0 0 88 88"><title>employee-avatar</title><g id="Layer_2" data-name="Layer 2"><g id="web"><path d="M58.93,34C58.93,23.7,52.67,19,44.54,19h-.67c-7.84.25-14.38,5-14.38,15,0,7.69,3.64,14.29,8.85,17.17V57.8h0v6.36H49.73V51.46l.33-.19h0C55.25,48.4,58.93,41.77,58.93,34Z" style="fill:#fff"/><path d="M52.87,28.2s-5.18,8.53-14.72,7.69c0,0,3.18-1,3.18-2.68a15,15,0,0,1-4.68,2.17s1.67-2.17,1.34-3.18c0,0-5.35,1.17-5.52,3.68l-1.17,2.84-4-4.68S25,18.7,36.87,15.19s17.2,4.59,17.2,4.59,4,2,5.67,13.5c0,0-2.86,1.95-2.52,4.46A16.85,16.85,0,0,1,52.87,28.2Z" style="fill:#020202"/><path d="M59.94,31.59c1.07.16,1.67,2,1.36,4.19s-1.44,3.78-2.5,3.63-1.67-2-1.36-4.19S58.88,31.44,59.94,31.59Zm-31.6-.24c-1,.09-1.6,1.9-1.4,4s1.17,3.78,2.14,3.69,1.6-1.9,1.4-4S29.32,31.26,28.34,31.36Z" style="fill:#fff"/><path d="M33.8,72.07v.2a1.2,1.2,0,0,1-1.2,1.2h-2a1.2,1.2,0,0,1-1.2-1.2v-.2a1.2,1.2,0,0,1,1.2-1.2h2A1.2,1.2,0,0,1,33.8,72.07Zm24.47-1.4h-2a1.2,1.2,0,0,0-1.2,1.2v.2a1.2,1.2,0,0,0,1.2,1.2h2a1.2,1.2,0,0,0,1.2-1.2v-.2A1.2,1.2,0,0,0,58.27,70.66Z" style="fill:#47474a"/><path d="M28.11,69.77h32.5V77h6.51c-.47-2.3-2.46-10.19-8.19-14.92v6.79H53.81V59.24a15.76,15.76,0,0,0-1.64-.44l-1.05-1.18a15.55,15.55,0,0,1-6.88,1.51,15.39,15.39,0,0,1-7.14-1.64L35.93,58.8l.23.25a16.7,16.7,0,0,0-1.86.51v9.31H29.18V62.13c-3.61,2.53-7.37,7-8.3,14.87h7.22Z" style="fill:gray"/><path d="M28.11,69.77V77H43.88V69.77Zm4.49,3.7h-2a1.2,1.2,0,0,1-1.2-1.2v-.2a1.2,1.2,0,0,1,1.2-1.2h2a1.2,1.2,0,0,1,1.2,1.2v.2A1.2,1.2,0,0,1,32.6,73.47Zm11.28-3.7V77H60.61V69.77Zm14.4,3.5h-2a1.2,1.2,0,0,1-1.2-1.2v-.2a1.2,1.2,0,0,1,1.2-1.2h2a1.2,1.2,0,0,1,1.2,1.2v.2A1.2,1.2,0,0,1,58.27,73.27Zm-24-4.4V59.55a19.94,19.94,0,0,0-5.12,2.57v6.74Zm24.62,0V62.08a15.71,15.71,0,0,0-5.12-2.84v9.63ZM43.48,11C61.6,11,58.79,29.24,58.79,29.24H27.49S25.35,11,43.48,11Z" style="fill:#50bbb6"/><path d="M59.26,28.81a.64.64,0,0,0-.48-.21H27.49a.64.64,0,0,0-.6.86,10.69,10.69,0,0,0,3.38,4.12,17.1,17.1,0,0,0,5.28,2.75,27.76,27.76,0,0,0,8.6,1.23,24.82,24.82,0,0,0,8.29-1.24,12.43,12.43,0,0,0,4.62-2.79,7.77,7.77,0,0,0,2.35-4.22A.64.64,0,0,0,59.26,28.81Z" style="fill:gray"/><path d="M42.37,35.17a18,18,0,0,1-7-1.7A23.08,23.08,0,0,1,32,31.67a.46.46,0,1,1,.51-.75c.06,0,5.14,3.47,10.11,3.34a.46.46,0,1,1,0,.91Z" style="fill:#585a5c"/><path d="M45.86,24.45l.43-.74a.32.32,0,0,1,.44-.12l1.22.71A1.5,1.5,0,0,0,46,22.86a.64.64,0,0,1-.21-.15l-1.5-1.57,2.2-2.2.89-.36.36-.89-.53-.53-.89.36-.36.89-2.19,2.19-1.09-1.14a.64.64,0,0,1-.14-.24,1.5,1.5,0,0,0-2.19-1.75l1.22.71a.32.32,0,0,1,.12.44l-.43.74a.32.32,0,0,1-.44.12l-1.22-.71a1.5,1.5,0,0,0,1.93,1.44.65.65,0,0,1,.21.15l1.11,1.16-.24.24h0a.59.59,0,0,0-.83,0l-2.73,2.73a.59.59,0,0,0,0,.83l.53.53a.59.59,0,0,0,.83,0l2.73-2.73a.59.59,0,0,0,0-.83h0l.23-.23.2.21h0l1.29,1.34a.64.64,0,0,1,.14.24,1.5,1.5,0,0,0,2.19,1.75L46,24.89A.32.32,0,0,1,45.86,24.45Z" style="fill:#fff"/><rect width="88" height="88" style="fill:none"/></g></g></svg>