<svg xmlns="http://www.w3.org/2000/svg" viewBox="0 0 24 24"><title>ic-construction</title><g id="Layer_2" data-name="Layer 2"><g id="web"><rect width="24" height="24" style="fill:none"/><path d="M13.18,16.63h-6a.43.43,0,0,0-.43.43v3a.43.43,0,0,0,.43.43h6a.43.43,0,0,0,.43-.43v-3A.43.43,0,0,0,13.18,16.63Zm7.39,0h-6a.43.43,0,0,0-.43.43v3a.43.43,0,0,0,.43.43h6a.43.43,0,0,0,.43-.43v-3A.43.43,0,0,0,20.57,16.63ZM7.18,11.74h6a.43.43,0,0,0,.43-.43v-3a.43.43,0,0,0-.43-.43h-6a.43.43,0,0,0-.43.43v3A.43.43,0,0,0,7.18,11.74ZM20.57,7.89h-6a.43.43,0,0,0-.43.43v3a.43.43,0,0,0,.43.43h6a.43.43,0,0,0,.43-.43v-3A.43.43,0,0,0,20.57,7.89Zm-9.78-.52h6a.43.43,0,0,0,.43-.43v-3a.43.43,0,0,0-.43-.43h-6a.43.43,0,0,0-.43.43v3A.43.43,0,0,0,10.79,7.37Zm-.3,5.31v3a.43.43,0,0,0,.43.43h6a.43.43,0,0,0,.43-.43v-3a.43.43,0,0,0-.43-.43h-6A.43.43,0,0,0,10.48,12.69Zm-.63,3v-3a.43.43,0,0,0-.43-.43h-6a.43.43,0,0,0-.43.43v3a.43.43,0,0,0,.43.43h6A.43.43,0,0,0,9.85,15.68Z" style="fill:#ffffff"/></g></g></svg>
