<svg xmlns="http://www.w3.org/2000/svg" viewBox="0 0 24 24"><title>ic-electricity</title><g id="Layer_2" data-name="Layer 2"><g id="web"><rect width="24" height="24" style="fill:none"/><path d="M7.56,5.84a.45.45,0,0,0-.65,0c-2.7,3-1.23,9.38-1.08,10l-2.7,2.7a.45.45,0,0,0,0,.63l1.63,1.63a.45.45,0,0,0,.63,0l2.7-2.7a18.78,18.78,0,0,0,4.41.54c1.75,0,4.13-.28,5.61-1.62a.45.45,0,0,0,0-.65Zm3.9,2.67a.45.45,0,0,0,.63,0l3.35-3.35a1.26,1.26,0,0,0-1.78-1.78L10.32,6.74a.45.45,0,0,0,0,.63Zm9.17.06a1.26,1.26,0,0,0-1.78,0l-3.35,3.35a.45.45,0,0,0,0,.63l1.14,1.14a.45.45,0,0,0,.63,0l3.35-3.35A1.26,1.26,0,0,0,20.63,8.57Z" style="fill:#ffffff"/></g></g></svg>
