<svg xmlns="http://www.w3.org/2000/svg" viewBox="0 0 296 160"><title>login-popup-back</title><g id="Layer_2" data-name="Layer 2"><g id="Layer_2-2" data-name="Layer 2"><rect width="296" height="160" style="fill:gray"/><rect width="296" height="160" style="fill:none"/><polygon points="68.63 16 64 20.63 59.37 16 56 19.37 60.63 24 56 28.63 59.37 32 64 27.37 68.63 32 72 28.63 67.37 24 72 19.37 68.63 16" style="opacity:0.24"/><polygon points="244.63 80 240 84.63 235.37 80 232 83.37 236.63 88 232 92.63 235.37 96 240 91.37 244.63 96 248 92.63 243.37 88 248 83.37 244.63 80" style="opacity:0.24"/><polygon points="258.31 36 256 38.31 253.69 36 252 37.69 254.31 40 252 42.31 253.69 44 256 41.69 258.31 44 260 42.31 257.69 40 260 37.69 258.31 36" style="opacity:0.24"/><polygon points="198.31 16 196 18.32 193.69 16 192 17.68 194.31 20 192 22.32 193.69 24 196 21.68 198.31 24 200 22.32 197.69 20 200 17.68 198.31 16" style="opacity:0.24"/><polygon points="281.1 6 278.78 8.31 276.46 6 274.78 7.68 277.1 10 274.78 12.31 276.46 14 278.78 11.69 281.1 14 282.78 12.31 280.46 10 282.78 7.68 281.1 6" style="opacity:0.24"/><polygon points="125.67 6 123.35 8.31 121.04 6 119.35 7.68 121.67 10 119.35 12.31 121.04 14 123.35 11.69 125.67 14 127.35 12.31 125.04 10 127.35 7.68 125.67 6" style="opacity:0.24"/><polygon points="18.23 107 15.91 109.31 13.6 107 11.91 108.69 14.22 111 11.91 113.31 13.6 115 15.91 112.69 18.23 115 19.91 113.31 17.59 111 19.91 108.69 18.23 107" style="opacity:0.24"/><polygon points="123.01 147.64 120.7 149.96 118.38 147.64 116.7 149.32 119.01 151.64 116.7 153.96 118.38 155.64 120.7 153.32 123.01 155.64 124.7 153.96 122.38 151.64 124.7 149.32 123.01 147.64" style="opacity:0.24"/><polygon points="31.82 144.17 29.5 146.49 27.18 144.17 25.5 145.85 27.82 148.17 25.5 150.49 27.18 152.17 29.5 149.85 31.82 152.17 33.5 150.49 31.18 148.17 33.5 145.85 31.82 144.17" style="opacity:0.24"/><polygon points="190.31 126 188 128.31 185.69 126 184 127.69 186.31 130 184 132.31 185.69 134 188 131.69 190.31 134 192 132.31 189.69 130 192 127.69 190.31 126" style="opacity:0.24"/><polygon points="190.31 52 188 54.31 185.69 52 184 53.69 186.31 56 184 58.31 185.69 60 188 57.69 190.31 60 192 58.31 189.69 56 192 53.69 190.31 52" style="opacity:0.24"/><polygon points="125.67 85.44 123.35 87.76 121.04 85.44 119.35 87.13 121.67 89.44 119.35 91.76 121.04 93.44 123.35 91.13 125.67 93.44 127.35 91.76 125.04 89.44 127.35 87.13 125.67 85.44" style="opacity:0.24"/><polygon points="147.31 48.54 145 50.86 142.69 48.54 141 50.23 143.31 52.54 141 54.86 142.69 56.54 145 54.23 147.31 56.54 149 54.86 146.69 52.54 149 50.23 147.31 48.54" style="opacity:0.24"/><polygon points="78.31 102.71 76 105.03 73.69 102.71 72 104.39 74.31 106.71 72 109.03 73.69 110.71 76 108.39 78.31 110.71 80 109.03 77.69 106.71 80 104.39 78.31 102.71" style="opacity:0.24"/><path d="M48,80H64L56,66.17Zm4.48-2.52L56,71.4l3.52,6.08h-7Z" style="opacity:0.24"/><path d="M224,141.83h16L232,128Zm4.48-2.52,3.52-6.08,3.52,6.08h-7Z" style="opacity:0.24"/><path d="M54.33,128h8l-4-6.91Zm2.24-1.26,1.76-3,1.76,3H56.58Z" style="opacity:0.24"/><path d="M89.33,155.63h8l-4-6.91Zm2.24-1.26,1.76-3,1.76,3H91.58Z" style="opacity:0.24"/><path d="M256,152.17h8l-4-6.91Zm2.24-1.26,1.76-3,1.76,3h-3.52Z" style="opacity:0.24"/><path d="M15.6,37.3h8l-4-6.91ZM17.84,36l1.76-3,1.76,3H17.84Z" style="opacity:0.24"/><path d="M93.33,13.46h8l-4-6.91Zm2.24-1.26,1.76-3,1.76,3H95.58Z" style="opacity:0.24"/><path d="M164,33.84h8l-4-6.91Zm2.24-1.26,1.76-3,1.76,3h-3.52Z" style="opacity:0.24"/><path d="M105.85,52h8l-4-6.91Zm2.24-1.26,1.76-3,1.76,3h-3.52Z" style="opacity:0.24"/><path d="M165.1,106.71h8l-4-6.91Zm2.24-1.26,1.76-3,1.76,3h-3.52Z" style="opacity:0.24"/><path d="M135.5,136.91h8l-4-6.91Zm2.24-1.26,1.76-3,1.76,3h-3.52Z" style="opacity:0.24"/><path d="M99,104.46h8l-4-6.91Zm2.24-1.26,1.76-3,1.76,3h-3.52Z" style="opacity:0.24"/><path d="M226,10h8l-4-6.91Zm2.24-1.26,1.76-3,1.76,3h-3.52Z" style="opacity:0.24"/><path d="M278.78,69.63h8l-4-6.91ZM281,68.37l1.76-3,1.76,3H281Z" style="opacity:0.24"/><g style="opacity:0.24"><path d="M264,120a8,8,0,1,0-8-8A8,8,0,0,0,264,120Zm0-11.66a3.66,3.66,0,1,1-3.66,3.66A3.66,3.66,0,0,1,264,108.34Z"/></g><g style="opacity:0.24"><path d="M92,135.51a4,4,0,1,0-4-4A4,4,0,0,0,92,135.51Zm0-5.83a1.83,1.83,0,1,1-1.83,1.83A1.83,1.83,0,0,1,92,129.68Z"/></g><g style="opacity:0.24"><path d="M11.91,139.51a4,4,0,1,0-4-4A4,4,0,0,0,11.91,139.51Zm0-5.83a1.83,1.83,0,1,1-1.83,1.83A1.83,1.83,0,0,1,11.91,133.68Z"/></g><g style="opacity:0.24"><path d="M124.7,34.39a4,4,0,1,0-4-4A4,4,0,0,0,124.7,34.39Zm0-5.83a1.83,1.83,0,1,1-1.83,1.83A1.83,1.83,0,0,1,124.7,28.55Z"/></g><g style="opacity:0.24"><path d="M180,88a4,4,0,1,0-4-4A4,4,0,0,0,180,88Zm0-5.83A1.83,1.83,0,1,1,178.17,84,1.83,1.83,0,0,1,180,82.17Z"/></g><g style="opacity:0.24"><path d="M92,72a4,4,0,1,0-4-4A4,4,0,0,0,92,72Zm0-5.83A1.83,1.83,0,1,1,90.17,68,1.83,1.83,0,0,1,92,66.17Z"/></g><g style="opacity:0.24"><path d="M139.5,108a4,4,0,1,0-4-4A4,4,0,0,0,139.5,108Zm0-5.83a1.83,1.83,0,1,1-1.83,1.83A1.83,1.83,0,0,1,139.5,102.17Z"/></g><g style="opacity:0.24"><path d="M14.27,12a4,4,0,1,0-4-4A4,4,0,0,0,14.27,12Zm0-5.83A1.83,1.83,0,1,1,12.44,8,1.83,1.83,0,0,1,14.27,6.17Z"/></g><g style="opacity:0.24"><path d="M218.67,124a4,4,0,1,0-4-4A4,4,0,0,0,218.67,124Zm0-5.83a1.83,1.83,0,1,1-1.83,1.83A1.83,1.83,0,0,1,218.67,118.17Z"/></g><g style="opacity:0.24"><path d="M216,60a4,4,0,1,0-4-4A4,4,0,0,0,216,60Zm0-5.83A1.83,1.83,0,1,1,214.17,56,1.83,1.83,0,0,1,216,54.17Z"/></g><g style="opacity:0.24"><path d="M278.78,30.39a4,4,0,1,0-4-4A4,4,0,0,0,278.78,30.39Zm0-5.83a1.83,1.83,0,1,1-1.83,1.83A1.83,1.83,0,0,1,278.78,24.55Z"/></g><g style="opacity:0.24"><path d="M180,14a4,4,0,1,0-4-4A4,4,0,0,0,180,14Zm0-5.83A1.83,1.83,0,1,1,178.17,10,1.83,1.83,0,0,1,180,8.17Z"/></g><g style="opacity:0.24"><path d="M60,101a4,4,0,1,0-4-4A4,4,0,0,0,60,101Zm0-5.83A1.83,1.83,0,1,1,58.17,97,1.83,1.83,0,0,1,60,95.17Z"/></g><g style="opacity:0.24"><path d="M172,155.64a4,4,0,1,0-4-4A4,4,0,0,0,172,155.64Zm0-5.83a1.83,1.83,0,1,1-1.83,1.83A1.83,1.83,0,0,1,172,149.81Z"/></g><path d="M24,72a8,8,0,1,0-8-8A8,8,0,0,0,24,72Zm0-11.66A3.66,3.66,0,1,1,20.34,64,3.66,3.66,0,0,1,24,60.34Z" style="opacity:0.24"/><path d="M206.81,41.19A3.84,3.84,0,0,0,204,40H92a4.06,4.06,0,0,0-4,4v72a4.06,4.06,0,0,0,4,4H204a4.06,4.06,0,0,0,4-4V44A3.85,3.85,0,0,0,206.81,41.19ZM200,96a16,16,0,0,0-16,16H112A16,16,0,0,0,96,96V64a16,16,0,0,0,16-16h72a16,16,0,0,0,16,16V96ZM163,62.75a19.33,19.33,0,0,0-6.34-6.31,16.48,16.48,0,0,0-17.25,0A19.33,19.33,0,0,0,133,62.75a33.61,33.61,0,0,0-3.72,8.37,30.66,30.66,0,0,0,0,17.75A33.64,33.64,0,0,0,133,97.25a19.33,19.33,0,0,0,6.34,6.31,16.47,16.47,0,0,0,17.25,0A19.33,19.33,0,0,0,163,97.25a33.65,33.65,0,0,0,3.72-8.38,30.66,30.66,0,0,0,0-17.75A33.62,33.62,0,0,0,163,62.75ZM160,96H136V90h8V72h-.13a20.78,20.78,0,0,1-3.44,3.56l-4.81-5L144.87,62H152V90h8Z" style="fill:#fff;opacity:0"/><path d="M206.81,41.19A3.84,3.84,0,0,0,204,40H92a4.06,4.06,0,0,0-4,4v72a4.06,4.06,0,0,0,4,4H204a4.06,4.06,0,0,0,4-4V44A3.85,3.85,0,0,0,206.81,41.19ZM200,112H96V76H200Zm0-52H96V48H200Z" style="fill:#fff;opacity:0"/><path d="M134.56,48.16A13.44,13.44,0,1,1,148,61.6,13.45,13.45,0,0,1,134.56,48.16ZM126.33,94h43.33a3.24,3.24,0,0,0,3.24-3.24,24.91,24.91,0,0,0-49.82,0A3.24,3.24,0,0,0,126.33,94Zm34.76,12.45-7-1L150.91,99a3.25,3.25,0,0,0-5.82,0l-3.15,6.37-7,1a3.25,3.25,0,0,0-1.8,5.53l5.09,5-1.2,7a3.25,3.25,0,0,0,4.71,3.42L148,124l6.29,3.31a3.25,3.25,0,0,0,4.71-3.42l-1.2-7,5.09-5A3.25,3.25,0,0,0,161.09,106.41Zm-36.13,0-7-1L114.77,99A3.25,3.25,0,0,0,109,99l-3.15,6.37-7,1a3.25,3.25,0,0,0-1.8,5.53l5.09,5-1.2,7a3.25,3.25,0,0,0,4.71,3.42l6.29-3.31,6.29,3.31a3.25,3.25,0,0,0,4.71-3.42l-1.2-7,5.09-5A3.25,3.25,0,0,0,125,106.41Zm72.27,0-7-1L187,99a3.24,3.24,0,0,0-5.82,0l-3.15,6.37-7,1a3.25,3.25,0,0,0-1.8,5.53l5.09,5-1.2,7a3.25,3.25,0,0,0,4.71,3.42l6.29-3.31,6.29,3.31a3.25,3.25,0,0,0,4.71-3.42l-1.2-7,5.09-5A3.25,3.25,0,0,0,197.22,106.41Z" style="fill:#fff;opacity:0"/><path d="M126.84,55.89A21.16,21.16,0,1,1,148,77,21.18,21.18,0,0,1,126.84,55.89Zm-13,72.11h68.24a5.11,5.11,0,0,0,5.11-5.11,39.23,39.23,0,0,0-78.45,0A5.11,5.11,0,0,0,113.88,128Z" style="fill:#fff"/></g></g></svg>