<svg xmlns="http://www.w3.org/2000/svg" viewBox="0 0 64 64"><title>logo</title><g id="Layer_2" data-name="Layer 2"><g id="web"><path d="M32,12.36l-5.27,3.21V42.88a9.47,9.47,0,0,0,.18,1.28c0,1.38,0,2.9,0,4.33a21.72,21.72,0,0,0,.3,3.16c-.06-.77-.05-1.34-.14-2.1,0,0,.11,0,.1-.2s0-.61,0-.86c0,0,0,0,0,0s0,0,0,0a9.67,9.67,0,0,1,.08-2.11,2.92,2.92,0,0,0,.16-.92V46h.11c0-.73.1-1.64.15-2.36h.11v-.36s0,0,.06,0c0,.26.09.53.14.8,0,.57,0,1.32,0,1.79h.15v-.36h.07c0,.84,0,1.57,0,2.36h0s.07,0,.07-.18c0,.22,0,.55,0,.8l.35,1.32c0-.19.12-1.79.13-1.95s.07-.36.14-.36,0-.18,0-.27.06-.1.08-.27.13-.92.21-1.65a1.8,1.8,0,0,0,0-.31c.08-.74.17-1.45.21-1.66a1.88,1.88,0,0,1,0-.35,10.58,10.58,0,0,1,.16,1.82c.15,0,.23.26.32.52.12.81.1,1.9.18,2.73a3.13,3.13,0,0,0,0-.83c.05-.28.26.53.32.25,0-.55-.08-1.36-.12-1.9h.15c.05.81.07,1.35.14,2.17a3,3,0,0,0,.18.66c.06.14.12.21.17.22h0s0,0,.06-.1,0-.08,0-.12c0-1.07-.11-2.35-.16-3.4,0,.27.09.26.16.26,0-.76-.07-1.48-.09-2.23,0-.1.08-.23.13-.39,0,1.54.11,2.2.17,3.73.19,2.33.74,1.44,1.15-.32-.14.59.3.58.17,1.16.2,0,.45-.24.67-.72,0,.26,0,.51.07.75s.17.25.24.24a8.29,8.29,0,0,0,.08,1c.09.55.24,1.17.36,1.78,0-.54-.1-1.21-.14-1.77v0c-.07-1-.16-2.15-.22-3.2a10.18,10.18,0,0,0,.19-1.61l0,1.75c.16.58.44,0,.73,0,0-.58,0-1.17.12-1.17h.59l0,2.33c0-.58,0-1.16.12-1.17H36c.12-1.17-.2-2.9-.08-4.07h.44a37.47,37.47,0,0,1,.08,4.07c.14-.58.28-.59.58-.59.12-1.74-.37-3.48.05-5.22l0,1.74a1.57,1.57,0,0,0,.13-.29V15.57Z" style="fill:#fbb64a"/><path d="M48.23,48.47v0Z" style="fill:none"/><path d="M48.23,48.47v0C48.23,48.55,48.23,48.45,48.23,48.47Z" style="fill:#231f20"/><path d="M47.82,22,37.27,15.57V42.88a9.64,9.64,0,0,0,.18,1.27c0,1.38,0,2.9,0,4.33a21.84,21.84,0,0,0,.3,3.16c-.06-.77-.06-1.34-.14-2.1,0,0,.11,0,.1-.2s0-.61,0-.87a9.8,9.8,0,0,1,.08-2.11,2.93,2.93,0,0,0,.16-.92V46H38c0-.73.1-1.64.15-2.36h.11v-.36s0,0,.06,0c0,.26.09.53.14.8,0,.57,0,1.32,0,1.79h.15v-.37h.08c0,.84,0,1.57,0,2.36h0s.07,0,.07-.18c0,.23,0,.58,0,.83A11,11,0,0,0,38.94,50c.05.18.15,0,.14-.55,0-.32,0-.58,0-.86h.06a5.73,5.73,0,0,0,0,.67c0,.18.09-.36.14-.19a2.21,2.21,0,0,0,.07.53c0-.3-.06-.77-.07-1.13,0-.19,0-.49,0-.66s.07-.36.14-.36,0-.18,0-.27.06-.11.08-.27.13-.92.21-1.65a1.76,1.76,0,0,0,0-.31c.08-.74.17-1.45.21-1.66A1.85,1.85,0,0,1,40,43a10.48,10.48,0,0,1,.16,1.82c.15,0,.23.26.32.52.12.81.1,1.9.18,2.73a3.16,3.16,0,0,0,0-.83c.05-.28.26.53.32.25,0-.55-.09-1.36-.12-1.9H41c.05.81.07,1.35.14,2.17a3,3,0,0,0,.18.66c.06.14.12.21.17.22h0s0,0,.06-.1,0-.08,0-.12c0-1.07-.11-2.35-.16-3.4,0,.27.09.26.16.26,0-.76-.07-1.48-.09-2.23,0-.1.08-.23.13-.39,0,1.54.54,3.07.61,4.61.19,2.33.3.57.71-1.19-.14.59.3.58.17,1.16.2,0,.45-.25.67-.72,0,.26,0,.51.07.75s.17.25.24.24a8.3,8.3,0,0,0,.08,1c.09.55.24,1.17.36,1.78,0-.54-.1-1.21-.14-1.76v0c-.07-1-.16-2.15-.22-3.2a10.09,10.09,0,0,0,.19-1.61l0,1.75c.16.58.44,0,.73,0,0-.58,0-1.17.12-1.17h.59c0,.58,0,1.75,0,2.33,0-.58,0-1.16.12-1.17h.59c.12-1.17-.2-2.9-.08-4.07H47A37.48,37.48,0,0,1,47,45.37c.14-.58.28-.59.58-.59.12-1.74-.37-3.48.05-5.22l0,1.74a1.56,1.56,0,0,0,.13-.29v1.87A9.58,9.58,0,0,0,48,44.15c0,1.38,0,2.9,0,4.33a21.81,21.81,0,0,0,.3,3.16c-.06-.77-.06-1.34-.14-2.1,0,0,.11,0,.1-.2s0-.61,0-.87v0a9.63,9.63,0,0,1,.08-2.09,2.94,2.94,0,0,0,.16-.92V46h.11c0-.73.1-1.64.15-2.36h.11v-.36s0,0,.06,0,0,.29.08.43L49,27l7,0Z" style="fill:#ed4255"/><path d="M44.39,48.5h0Z" style="fill:#231f20"/><path d="M48,48.49c0-.07,0,.07,0,0Z" style="fill:#231f20"/><path d="M16.18,22,8,27l7,0,0,14.3h.28a37.38,37.38,0,0,1,.08,4.07c.14-.58.28-.59.58-.59.12-1.74-.37-3.48.05-5.22l0,1.74a1.62,1.62,0,0,0,.13-.29v1.87a9.44,9.44,0,0,0,.18,1.28c0,1.38,0,1.58,0,3a21.68,21.68,0,0,0,.3,3.16c-.06-.77-.05-1.34-.14-2.1,0,0,.11,0,.1-.2s0-.61,0-.86c0,0,0,0,0,0h0c0-.81,0-.39.08-.78a2.94,2.94,0,0,0,.16-.92V46h.11c0-.73.1-1.64.15-2.37h.11v-.36s0,0,.06,0c0,.26.09.53.14.8,0,.57,0,1.32,0,1.79h.15v-.36h.07c0,.84,0,1.57,0,2.36h0s.07,0,.07-.18c0,.23,0,.58,0,.83A10.82,10.82,0,0,0,17.85,50c.05.18.15,0,.14-.55,0-.32,0-.58,0-.86H18a5.66,5.66,0,0,0,0,.67c0,.18.09-.36.14-.19a2.16,2.16,0,0,0,.07.53c0-.3-.06-.77-.07-1.13,0-.19,0-.49,0-.66s.07-.36.14-.36,0-.18,0-.27.06-.11.08-.27.15-1.07.23-1.81.19-1.6.23-1.82a2,2,0,0,1,0-.35,10.51,10.51,0,0,1,.16,1.82c.15,0,.23.26.32.52.12.81.1,1.9.18,2.73a3.11,3.11,0,0,0,0-.83c.05-.28.26.53.32.25,0-.55-.08-1.36-.12-1.9h.15c.05.81.07,1.35.14,2.17a3,3,0,0,0,.18.66c.06.14.12.21.17.22h0s0,0,.06-.1,0-.08,0-.12c0-1.07-.11-2.35-.16-3.4,0,.27.09.26.16.26,0-.76-.07-1.48-.09-2.23,0-.1.08-.23.13-.39q.07,2.31.17,4.61c.19,2.33.74,1.44,1.15-.31-.14.59.3.58.17,1.16.2,0,.45-1.12.67-1.59,0,.26,0,.51.07.75s.17.25.24.24a8.49,8.49,0,0,0,.08,1c.09.55.24,1.17.36,1.78,0-.54-.1-1.21-.14-1.76v0c-.08-1-.16-2.15-.22-3.2a10,10,0,0,0,.19-1.61l0,1.75c.16.58.44,0,.73,0,0-.58,0-1.17.12-1.17h.59c0,.38,0,.13,0,.69h0c0-.24,0,2.24.12,2.24h.59c.12-1.17-.2-4.66-.08-5.83h.44a37.42,37.42,0,0,1,.08,4.07c.14-.58.28-.59.58-.59.12-1.74-.37-3.48.05-5.22l0,1.74a1.61,1.61,0,0,0,.13-.29V15.57Z" style="fill:#50bbb6"/><path d="M23.3,48.49h0Z" style="fill:#ffe600"/><path d="M16.59,47.15h0Z" style="fill:#ffe600"/><rect width="64" height="64" style="fill:none"/></g></g></svg>