<svg xmlns="http://www.w3.org/2000/svg" viewBox="0 0 176 88"><title>rating</title><g id="Layer_2" data-name="Layer 2"><g id="web"><rect width="176" height="88" style="fill:none"/><rect x="32" y="22.06" width="105.59" height="20.91" rx="9.67" ry="9.67" style="fill:gray"/><path d="M138,34.12l.34.26,1,.73,1.49,1.15.91.71,1,.79,1.1.86,1.17.92,2.52,2,1.33,1.06,1.36,1.09,2.76,2.23,2.75,2.24,1.35,1.1,1.31,1.08,2.48,2,1.14,1,1.07.89,1,.82.88.75L166.32,57l.92.79.32.28-.34-.26-1-.73-1.49-1.14-.91-.71-1-.79-1.1-.86-1.17-.92-2.52-2-1.33-1.06-1.36-1.09-2.76-2.23L149.87,44l-1.35-1.1-1.31-1.08-2.48-2-1.14-1L142.53,38l-1-.82-.88-.75-1.43-1.22-.92-.79Z" style="fill:#fff"/><path d="M124.5,41.93l.39.26,1.1.73,1.7,1.14,1,.7,1.15.78,1.25.85,1.34.91,2.88,2,1.52,1.05,1.55,1.08,3.16,2.21,3.16,2.22,1.54,1.09L147.79,58l2.84,2L152,61l1.23.89,1.13.82,1,.74L157,64.64l1.06.78.37.28-.39-.26-1.1-.73-1.7-1.14-1-.7L153,62.11l-1.25-.85-1.34-.91-2.88-2L146,57.31l-1.55-1.08L141.3,54l-3.16-2.22L136.6,50.7l-1.51-1.07-2.84-2-1.31-.95-1.23-.89-1.13-.82-1-.74L125.93,43l-1.06-.78Z" style="fill:#fff"/><path d="M130.87,19.84l.47.31,1.33.89,2.07,1.39,1.27.86,1.41,1,1.53,1,1.63,1.11,3.52,2.41,1.85,1.28,1.9,1.31,3.87,2.69,3.86,2.7,1.89,1.33,1.84,1.3,3.48,2.47L164.38,43l1.5,1.08,1.38,1,1.24.9,2,1.46,1.29.95.46.34-.47-.31-1.33-.89-2.07-1.39-1.27-.86-1.41-1-1.53-1-1.63-1.11L159,39.78l-1.85-1.28-1.9-1.31-3.87-2.69-3.86-2.7-1.89-1.33-1.84-1.3-3.48-2.47-1.61-1.15-1.5-1.08-1.38-1-1.24-.9-2-1.46-1.29-.95Z" style="fill:#fff"/><path d="M139.6,45.42a4.39,4.39,0,0,0-1.78.19,4.15,4.15,0,0,1-2,.14,3.59,3.59,0,0,1-.11-1.28C135.8,44,138.5,43.36,139.6,45.42Z" style="fill:#ccc"/><path d="M136.9,23.91a27.12,27.12,0,0,1-2.75-.24l.1-1.78,3.7.26C138,22.42,138.2,23.95,136.9,23.91Z" style="fill:#ccc"/><path d="M142.21,15.53a11.64,11.64,0,0,0-2-1L141,13.2a29.91,29.91,0,0,0,2.75,1.52C143.52,15.11,142.93,16,142.21,15.53Z" style="fill:#ccc"/><path d="M151.25,13.66a11.88,11.88,0,0,1-1.86-.83l.63-1.7c.93,0,2.2,1,2.93,1.67C152.63,13.22,152,13.92,151.25,13.66Z" style="fill:#ccc"/><path d="M141,13.2l-.74,1.29a11.64,11.64,0,0,1,2,1c.72.49,1.31-.43,1.51-.82a16.63,16.63,0,0,0,3.09,1.17,6.58,6.58,0,0,1,4.11,3.29l2.3,5a5.82,5.82,0,0,0-2.29-9.06,3.25,3.25,0,0,1-2.12-1.58,1.27,1.27,0,0,1,0-.39c0-1.5.51-2,1.16-2l-.63,1.7a11.88,11.88,0,0,0,1.86.83c.74.25,1.39-.44,1.69-.86.34.31.56.55.56.55l4.92,6.09,1,8.05s2-.47,2.13-2,.13-2.78.13-2.78a14.2,14.2,0,0,1-2.23-2.84,1.91,1.91,0,0,1,.28-1.6l.3.07-.27.77a4,4,0,0,1,.94.69c.44.41,1.28.09,1.62-.08a10.38,10.38,0,0,1,2.21,5.07c.29,1.61-2.41,8.11-2.41,8.11l2.1,5.19,2.39,3.24-8.55,10.16a3.36,3.36,0,0,0-1.93-1.06c-1.79,0-6.58.41-14.8-4.62a.7.7,0,0,0-.21,0,5.66,5.66,0,0,0-1.54-.35c-1.1-2.05-3.8-1.38-3.92-1a3.59,3.59,0,0,0,.11,1.28c-1.11-.24-1.77-1.12-.22-3.13,2.45-3.18,8.48-1.47,8.48-1.47a7.1,7.1,0,0,0,2.41-2.48,4.13,4.13,0,0,0,1.19-5.36c-1.87-4.18-4.8-6.93-6-7a41.36,41.36,0,0,1-6.3-.12c-2.8-.89-1.43-4.34-1.43-4.34l.38,0-.1,1.78a27.12,27.12,0,0,0,2.75.24c1.3,0,1.1-1.49,1.06-1.76l4,.29L149,26.51l0-.13a3.66,3.66,0,0,1,1.06,1.38s-1.68-4-1.91-5.09a8.55,8.55,0,0,0-4-4.38c-1-.37-1.88-.57-2.72-.87-3.43-1.91-.81-4.47-.81-4.47Z" style="fill:#fff"/><path d="M160.71,19.76a4,4,0,0,0-.94-.69l.27-.77a4.69,4.69,0,0,1,2.3,1.38C162,19.85,161.16,20.17,160.71,19.76Z" style="fill:#ccc"/><path d="M173.14,43.78l-4.44-3.91a1.48,1.48,0,0,0-2.09.13l-5.14,5.84-5.14,5.84a1.48,1.48,0,0,0,.13,2.09l4.44,3.91a1.48,1.48,0,0,0,2.09-.13l5.14-5.84,5.14-5.84A1.48,1.48,0,0,0,173.14,43.78Z" style="fill:gray"/><path d="M106.88,34.79l1,6.1L102.46,38h0L97,40.88l1-6.1L93.6,30.47l6.12-.89L102.46,24l2.74,5.55,6.12.89ZM92,30.47l-6.12-.89L83.1,24l-2.74,5.55-6.12.89,4.43,4.32-1,6.1L83.1,38h0l5.47,2.88-1-6.1Zm-19.35,0-6.12-.89L63.75,24,61,29.58l-6.12.89,4.43,4.32-1,6.1L63.75,38l5.47,2.88-1-6.1Zm-19.35,0-6.12-.89L44.4,24l-2.74,5.55-6.12.89L40,34.79l-1,6.1L44.4,38l5.47,2.88-1-6.1ZM158.17,51.19a1.44,1.44,0,1,0,2-.13A1.44,1.44,0,0,0,158.17,51.19Zm14.11-10c-.43-.34-1.18-.12-1.68.5l-5.9,6.78h0l-5.83,6.66c-.54.58-.66,1.35-.26,1.73L176,72V44.43ZM140.85,27.33l-8.58-1.25-3.84-7.78-3.84,7.78L116,27.33l6.21,6.05-1.47,8.55,7.68-4,7.68,4-1.47-8.55Z" style="fill:#fbb64a"/><circle cx="125.13" cy="29.84" r="0.9" style="fill:#fff"/><circle cx="131.73" cy="29.84" r="0.9" style="fill:#fff"/><path d="M128.34,36.13H128a5.36,5.36,0,0,1-3-1.27,6.57,6.57,0,0,1-1.11-1.14l.5-.36a6.09,6.09,0,0,0,1,1,4.81,4.81,0,0,0,2.65,1.12c1.47.1,2.95-.64,4.41-2.19l.45.42A6.43,6.43,0,0,1,128.34,36.13Z" style="fill:#fff"/></g></g></svg>